<?xml version="1.0" encoding="UTF-8" standalone="no"?>
<svg
   xmlns:dc="http://purl.org/dc/elements/1.1/"
   xmlns:cc="http://creativecommons.org/ns#"
   xmlns:rdf="http://www.w3.org/1999/02/22-rdf-syntax-ns#"
   xmlns:svg="http://www.w3.org/2000/svg"
   xmlns="http://www.w3.org/2000/svg"
   xmlns:sodipodi="http://sodipodi.sourceforge.net/DTD/sodipodi-0.dtd"
   xmlns:inkscape="http://www.inkscape.org/namespaces/inkscape"
   height="64"
   width="64"
   version="1"
   id="svg2"
   inkscape:version="0.91 r13725"
   sodipodi:docname="IF.svg">
  <metadata
     id="metadata59">
    <rdf:RDF>
      <cc:Work
         rdf:about="">
        <dc:format>image/svg+xml</dc:format>
        <dc:type
           rdf:resource="http://purl.org/dc/dcmitype/StillImage" />
      </cc:Work>
    </rdf:RDF>
  </metadata>
  <sodipodi:namedview
     pagecolor="#ffffff"
     bordercolor="#666666"
     borderopacity="1"
     objecttolerance="10"
     gridtolerance="10"
     guidetolerance="10"
     inkscape:pageopacity="0"
     inkscape:pageshadow="2"
     inkscape:window-width="833"
     inkscape:window-height="705"
     id="namedview57"
     showgrid="false"
     inkscape:zoom="3.69"
     inkscape:cx="32"
     inkscape:cy="37.423729"
     inkscape:window-x="254"
     inkscape:window-y="231"
     inkscape:window-maximized="0"
     inkscape:current-layer="svg2" />
  <defs
     id="defs4">
    <linearGradient
       id="linearGradient4561"
       x1="24"
       gradientUnits="userSpaceOnUse"
       x2="44"
       gradientTransform="matrix(1.3 0 0 1.3333 .8 6e-7)"
       y1="24"
       y2="24">
      <stop
         offset="0"
         id="stop7" />
      <stop
         stop-opacity="0"
         offset="1"
         id="stop9" />
    </linearGradient>
    <linearGradient
       id="a-9"
       y1="547.63354"
       y2="499.67896"
       x2="388.86475"
       gradientUnits="userSpaceOnUse"
       gradientTransform="matrix(0.60827961,0,0,0.48624572,-204.59261,-212.11923)"
       x1="428.81628">
      <stop
         stop-color="#2a2c2f"
         id="stop7-1" />
      <stop
         offset="1"
         stop-color="#536161"
         id="stop9-2" />
    </linearGradient>
  </defs>
  <path
     d="m58 53.333v-42.666c0-1.4777-1.16-2.667-2.6-2.667h-46.8c-1.4404 0-2.6 1.1893-2.6 2.6667v42.666c0 1.478 1.1596 2.667 2.6 2.667h46.8c1.44 0 2.6-1.189 2.6-2.667z"
     fill="#ddd6a7"
     id="path11" />
  <g
     id="g13">
    <rect
       transform="scale(1,-1)"
       height="2"
       width="20"
       y="-33"
       x="35"
       id="rect15"
       opacity=".5" />
    <rect
       transform="scale(1,-1)"
       height="2"
       width="20"
       y="-29"
       x="35"
       id="rect17"
       opacity=".5" />
    <rect
       transform="scale(1,-1)"
       height="2"
       width="18"
       y="-25"
       x="35"
       id="rect19"
       opacity=".5" />
    <rect
       transform="scale(1,-1)"
       height="2"
       width="14"
       y="-21"
       x="35"
       id="rect21"
       opacity=".5" />
    <rect
       transform="scale(1,-1)"
       height="2"
       width="20"
       y="-17"
       x="35"
       id="rect23"
       opacity=".5" />
    <rect
       transform="scale(1,-1)"
       height="2"
       width="16"
       y="-13"
       x="35"
       id="rect25"
       opacity=".5" />
  </g>
  <g
     transform="translate(0,-1)"
     id="g27">
    <rect
       opacity=".5"
       height="2"
       width="20"
       y="13"
       x="9"
       id="rect29" />
    <rect
       opacity=".5"
       height="2"
       width="18"
       y="17"
       x="9"
       id="rect31" />
    <rect
       opacity=".5"
       height="2"
       width="16"
       y="21"
       x="9"
       id="rect33" />
    <rect
       opacity=".5"
       height="2"
       width="14"
       y="25"
       x="9"
       id="rect35" />
    <rect
       opacity=".5"
       height="2"
       width="12"
       y="29"
       x="9"
       id="rect37" />
    <rect
       opacity=".5"
       height="2"
       width="20"
       y="33"
       x="9"
       id="rect39" />
    <rect
       opacity=".5"
       height="2"
       width="20"
       y="37"
       x="9"
       id="rect41" />
    <rect
       opacity=".5"
       height="2"
       width="18"
       y="41"
       x="9"
       id="rect43" />
    <rect
       opacity=".5"
       height="2"
       width="14"
       y="45"
       x="9"
       id="rect45" />
    <rect
       opacity=".5"
       height="2"
       width="20"
       y="49"
       x="9"
       id="rect47" />
    <rect
       opacity=".5"
       height="2"
       width="16"
       y="53"
       x="9"
       id="rect49" />
  </g>
  <path
     opacity="0"
     d="m58 53.333v-42.666c0-1.4777-1.16-2.667-2.6-2.667h-23.4v48h23.4c1.44 0 2.6-1.189 2.6-2.667z"
     fill="url(#linearGradient4561)"
     id="path51" />
  <path
     d="m22 8h8v21.333l-4-5.333-4 5.333z"
     fill="#ff5959"
     id="path53" />
  <path
     opacity="0"
     d="m8.5996 8c-1.4404 0-2.5996 1.1887-2.5996 2.666v2c0-1.477 1.1592-2.666 2.5996-2.666h46.8c1.441 0 2.6 1.189 2.6 2.666v-2c0-1.4773-1.159-2.666-2.6-2.666h-46.8z"
     fill="#fff"
     id="path55" />
  <path
     id="path3653-3-2"
     style="opacity:0.4"
     d="m 37.420966,50.177966 -2.743,-2.727 6.171,-4.773 -6.171,-4.773 2.743,-2.727 9.257,7.5 -9.257,7.5 z"
     inkscape:connector-curvature="0" />
  <path
     id="path3651-7-2"
     style="opacity:0.4"
     d="m 54.584743,51.771186 0,-3 -11,0 0,3 11,0 z"
     inkscape:connector-curvature="0" />
</svg>
