<?xml version="1.0" encoding="UTF-8" standalone="no"?>
<svg
   xmlns:dc="http://purl.org/dc/elements/1.1/"
   xmlns:cc="http://creativecommons.org/ns#"
   xmlns:rdf="http://www.w3.org/1999/02/22-rdf-syntax-ns#"
   xmlns:svg="http://www.w3.org/2000/svg"
   xmlns="http://www.w3.org/2000/svg"
   xmlns:sodipodi="http://sodipodi.sourceforge.net/DTD/sodipodi-0.dtd"
   xmlns:inkscape="http://www.inkscape.org/namespaces/inkscape"
   height="64"
   width="64"
   version="1"
   id="svg2"
   inkscape:version="0.91 r13725"
   sodipodi:docname="Zoom.svg">
  <metadata
     id="metadata59">
    <rdf:RDF>
      <cc:Work
         rdf:about="">
        <dc:format>image/svg+xml</dc:format>
        <dc:type
           rdf:resource="http://purl.org/dc/dcmitype/StillImage" />
        <dc:title></dc:title>
      </cc:Work>
    </rdf:RDF>
  </metadata>
  <sodipodi:namedview
     pagecolor="#ffffff"
     bordercolor="#666666"
     borderopacity="1"
     objecttolerance="10"
     gridtolerance="10"
     guidetolerance="10"
     inkscape:pageopacity="0"
     inkscape:pageshadow="2"
     inkscape:window-width="867"
     inkscape:window-height="705"
     id="namedview57"
     showgrid="false"
     inkscape:zoom="3.6875"
     inkscape:cx="92.474576"
     inkscape:cy="47.698337"
     inkscape:window-x="602"
     inkscape:window-y="237"
     inkscape:window-maximized="0"
     inkscape:current-layer="svg2" />
  <defs
     id="defs4">
    <linearGradient
       id="linearGradient4561"
       x1="24"
       gradientUnits="userSpaceOnUse"
       x2="44"
       gradientTransform="matrix(1.3 0 0 1.3333 .8 6e-7)"
       y1="24"
       y2="24">
      <stop
         offset="0"
         id="stop7" />
      <stop
         stop-opacity="0"
         offset="1"
         id="stop9" />
    </linearGradient>
    <linearGradient
       id="a-9"
       y1="547.63354"
       y2="499.67896"
       x2="388.86475"
       gradientUnits="userSpaceOnUse"
       gradientTransform="matrix(0.60827961,0,0,0.48624572,-204.59261,-212.11923)"
       x1="428.81628">
      <stop
         stop-color="#2a2c2f"
         id="stop7-1" />
      <stop
         offset="1"
         stop-color="#536161"
         id="stop9-2" />
    </linearGradient>
  </defs>
  <path
     d="m58 53.333v-42.666c0-1.4777-1.16-2.667-2.6-2.667h-46.8c-1.4404 0-2.6 1.1893-2.6 2.6667v42.666c0 1.478 1.1596 2.667 2.6 2.667h46.8c1.44 0 2.6-1.189 2.6-2.667z"
     fill="#ddd6a7"
     id="path11" />
  <g
     id="g13">
    <rect
       opacity=".5"
       transform="scale(1,-1)"
       height="2"
       width="20"
       y="-33"
       x="35"
       id="rect15" />
    <rect
       opacity=".5"
       transform="scale(1,-1)"
       height="2"
       width="20"
       y="-29"
       x="35"
       id="rect17" />
    <rect
       opacity=".5"
       transform="scale(1,-1)"
       height="2"
       width="18"
       y="-25"
       x="35"
       id="rect19" />
    <rect
       opacity=".5"
       transform="scale(1,-1)"
       height="2"
       width="14"
       y="-21"
       x="35"
       id="rect21" />
    <rect
       opacity=".5"
       transform="scale(1,-1)"
       height="2"
       width="20"
       y="-17"
       x="35"
       id="rect23" />
    <rect
       opacity=".5"
       transform="scale(1,-1)"
       height="2"
       width="16"
       y="-13"
       x="35"
       id="rect25" />
  </g>
  <g
     transform="translate(0,-1)"
     id="g27">
    <rect
       opacity=".5"
       height="2"
       width="20"
       y="13"
       x="9"
       id="rect29" />
    <rect
       opacity=".5"
       height="2"
       width="18"
       y="17"
       x="9"
       id="rect31" />
    <rect
       opacity=".5"
       height="2"
       width="16"
       y="21"
       x="9"
       id="rect33" />
    <rect
       opacity=".5"
       height="2"
       width="14"
       y="25"
       x="9"
       id="rect35" />
    <rect
       opacity=".5"
       height="2"
       width="12"
       y="29"
       x="9"
       id="rect37" />
    <rect
       opacity=".5"
       height="2"
       width="20"
       y="33"
       x="9"
       id="rect39" />
    <rect
       opacity=".5"
       height="2"
       width="20"
       y="37"
       x="9"
       id="rect41" />
    <rect
       opacity=".5"
       height="2"
       width="18"
       y="41"
       x="9"
       id="rect43" />
    <rect
       opacity=".5"
       height="2"
       width="14"
       y="45"
       x="9"
       id="rect45" />
    <rect
       opacity=".5"
       height="2"
       width="20"
       y="49"
       x="9"
       id="rect47" />
    <rect
       opacity=".5"
       height="2"
       width="16"
       y="53"
       x="9"
       id="rect49" />
  </g>
  <path
     opacity="0"
     d="m58 53.333v-42.666c0-1.4777-1.16-2.667-2.6-2.667h-23.4v48h23.4c1.44 0 2.6-1.189 2.6-2.667z"
     fill="url(#linearGradient4561)"
     id="path51" />
  <path
     d="m22 8h8v21.333l-4-5.333-4 5.333z"
     fill="#ff5959"
     id="path53" />
  <path
     opacity="0"
     d="m8.5996 8c-1.4404 0-2.5996 1.1887-2.5996 2.666v2c0-1.477 1.1592-2.666 2.5996-2.666h46.8c1.441 0 2.6 1.189 2.6 2.666v-2c0-1.4773-1.159-2.666-2.6-2.666h-46.8z"
     fill="#fff"
     id="path55" />
  <path
     id="path2122"
     style="display:inline;fill:#000080;fill-opacity:1;fill-rule:evenodd;stroke:#000000;stroke-width:0.08406696;stroke-linecap:square;stroke-linejoin:miter;stroke-miterlimit:4;stroke-dasharray:none;stroke-opacity:1"
     d="m 28.655414,28.926607 2.76018,2.760181 -0.0013,0 -20.415826,0 17.656993,-2.760181"
     inkscape:connector-curvature="0" />
  <path
     id="path5805"
     style="display:inline;fill:#0000ff;fill-opacity:1;fill-rule:evenodd;stroke:#000000;stroke-width:0.08406696;stroke-linecap:square;stroke-linejoin:miter;stroke-miterlimit:4;stroke-dasharray:none;stroke-opacity:1"
     d="m 28.655414,34.531032 2.76018,-2.760176 -0.0013,0 -20.415826,0 17.656993,2.760176"
     inkscape:connector-curvature="0" />
  <path
     id="path8724"
     style="display:inline;fill:#000080;fill-opacity:1;fill-rule:evenodd;stroke:#000000;stroke-width:0.08406696;stroke-linecap:square;stroke-linejoin:miter;stroke-miterlimit:4;stroke-dasharray:none;stroke-opacity:1"
     d="m 34.259838,34.531036 -2.76018,-2.76018 0.0013,0 20.415827,0 -17.656994,2.76018"
     inkscape:connector-curvature="0" />
  <path
     id="path8726"
     style="display:inline;fill:#0000ff;fill-opacity:1;fill-rule:evenodd;stroke:#000000;stroke-width:0.08406696;stroke-linecap:square;stroke-linejoin:miter;stroke-miterlimit:4;stroke-dasharray:none;stroke-opacity:1"
     d="m 34.259838,28.926612 -2.76018,2.76018 0.0013,0 20.415827,0 -17.656994,-2.76018"
     inkscape:connector-curvature="0" />
  <path
     id="path8740"
     style="display:inline;fill:#000080;fill-opacity:1;fill-rule:evenodd;stroke:#000000;stroke-width:0.08406696;stroke-linecap:square;stroke-linejoin:miter;stroke-miterlimit:4;stroke-dasharray:none;stroke-opacity:1"
     d="m 28.655414,34.531032 2.76018,-2.76018 0,0.0013 0,20.415826 -2.76018,-17.656993"
     inkscape:connector-curvature="0" />
  <path
     id="path8742"
     style="display:inline;fill:#0000ff;fill-opacity:1;fill-rule:evenodd;stroke:#000000;stroke-width:0.08406696;stroke-linecap:square;stroke-linejoin:miter;stroke-miterlimit:4;stroke-dasharray:none;stroke-opacity:1"
     d="m 34.259838,34.531032 -2.76018,-2.76018 0,0.0013 0,20.415826 2.76018,-17.656993"
     inkscape:connector-curvature="0" />
  <path
     id="path8748"
     style="display:inline;fill:#0000ff;fill-opacity:1;fill-rule:evenodd;stroke:#000000;stroke-width:0.08406696;stroke-linecap:square;stroke-linejoin:miter;stroke-miterlimit:4;stroke-dasharray:none;stroke-opacity:1"
     d="m 28.655409,28.926612 2.76018,2.760176 0,-0.0013 0,-20.415831 -2.76018,17.656993"
     inkscape:connector-curvature="0" />
  <path
     id="path8746"
     style="display:inline;opacity:1;fill:#000080;fill-opacity:1;fill-rule:evenodd;stroke:#000000;stroke-width:0.08406696;stroke-linecap:square;stroke-linejoin:miter;stroke-miterlimit:4;stroke-dasharray:none;stroke-opacity:1"
     d="m 34.259833,28.926612 -2.760175,2.760176 0,-0.0013 0,-20.415831 2.760175,17.656993"
     inkscape:connector-curvature="0" />
  <path
     d="m 27.754762,19.488219 1.351711,0 1.706927,3.773839 0,-3.773839 1.147387,0 0,5.502289 -1.351715,0 -1.706928,-3.773839 0,3.773839 -1.147382,0 0,-5.502289"
     style="font-style:normal;font-variant:normal;font-weight:bold;font-stretch:normal;font-size:40px;line-height:125%;font-family:'Bitstream Vera Sans';text-align:start;writing-mode:lr-tb;text-anchor:start;display:inline;fill:#000000;fill-opacity:1;stroke:none"
     id="path1476"
     inkscape:connector-curvature="0" />
  <path
     d="m 39.600472,29.089296 3.309083,0 0,1.144966 -2.082909,0 0,1.093814 1.958699,0 0,1.14497 -1.958699,0 0,1.345628 2.152969,0 0,1.144966 -3.379143,0 0,-5.874344"
     style="font-style:normal;font-variant:normal;font-weight:bold;font-stretch:normal;font-size:40px;line-height:125%;font-family:'Bitstream Vera Sans';text-align:start;writing-mode:lr-tb;text-anchor:start;display:inline;fill:#000000;fill-opacity:1;stroke:none"
     id="path1478"
     inkscape:connector-curvature="0" />
  <path
     d="m 19.709368,28.791647 0.953278,0 0.666523,4.160881 0.66135,-4.160881 0.958445,0 0.661356,4.160881 0.666522,-4.160881 0.945527,0 -0.909362,5.725525 -1.147034,0 -0.700104,-4.352626 -0.692354,4.352626 -1.147038,0 -0.917109,-5.725525"
     style="font-style:normal;font-variant:normal;font-weight:bold;font-stretch:normal;font-size:40px;line-height:125%;font-family:'Bitstream Vera Sans';text-align:start;writing-mode:lr-tb;text-anchor:start;display:inline;fill:#000000;fill-opacity:1;stroke:none"
     id="path1480"
     inkscape:connector-curvature="0" />
  <path
     d="m 34.37236,40.411062 0,1.247502 c -0.23824,-0.144748 -0.470662,-0.25397 -0.697269,-0.327669 -0.226617,-0.07369 -0.440641,-0.110533 -0.642069,-0.110533 -0.267293,0 -0.464853,0.05001 -0.592683,0.150012 -0.12783,0.100014 -0.19175,0.255295 -0.191745,0.465838 -5e-6,0.157917 0.0426,0.281615 0.12783,0.371092 0.08716,0.08685 0.244041,0.161861 0.470658,0.225024 l 0.476467,0.130277 c 0.482277,0.131598 0.8251,0.331617 1.028473,0.600063 0.203365,0.268451 0.305051,0.650071 0.305056,1.144861 -5e-6,0.650066 -0.142363,1.134328 -0.427081,1.452781 -0.282781,0.315825 -0.715667,0.473734 -1.298662,0.473734 -0.275039,0 -0.551038,-0.03552 -0.828005,-0.10659 -0.276975,-0.07106 -0.553947,-0.176332 -0.830914,-0.315821 l 0,-1.283029 c 0.276967,0.20002 0.544256,0.351353 0.801857,0.453994 0.259538,0.10001 0.509393,0.150017 0.749566,0.150017 0.244045,0 0.430949,-0.05527 0.56072,-0.165808 0.129771,-0.110538 0.19465,-0.268446 0.194655,-0.473734 -5e-6,-0.184228 -0.04455,-0.326349 -0.133645,-0.426364 -0.08716,-0.100005 -0.262442,-0.189487 -0.525858,-0.268446 l -0.432886,-0.130277 c -0.433858,-0.126325 -0.751502,-0.327665 -0.952934,-0.604011 -0.199496,-0.276342 -0.299246,-0.648751 -0.299246,-1.117225 0,-0.586899 0.139454,-1.038262 0.418361,-1.354087 0.278908,-0.315817 0.679837,-0.47373 1.20279,-0.473734 0.238231,4e-6 0.483245,0.025 0.735041,0.07501 0.251788,0.04738 0.512298,0.119754 0.781523,0.217127"
     style="font-style:normal;font-variant:normal;font-weight:bold;font-stretch:normal;font-size:40px;line-height:125%;font-family:'Bitstream Vera Sans';text-align:start;writing-mode:lr-tb;text-anchor:start;display:inline;fill:#000000;fill-opacity:1;stroke:none"
     id="path1482"
     inkscape:connector-curvature="0" />
  <text
     xml:space="preserve"
     style="font-style:normal;font-weight:normal;font-size:49.38586807px;line-height:125%;font-family:sans-serif;letter-spacing:0px;word-spacing:0px;display:inline;fill:#808000;fill-opacity:1;stroke:none;stroke-width:1px;stroke-linecap:butt;stroke-linejoin:miter;stroke-opacity:1;"
     x="18.392601"
     y="50.106361"
     id="text3465"
     sodipodi:linespacing="125%"
     transform="scale(1.0123115,0.98783823)"><tspan
       sodipodi:role="line"
       id="tspan3467"
       x="18.392601"
       y="50.106361"
       style="font-style:normal;font-variant:normal;font-weight:normal;font-stretch:normal;font-size:49.38624954px;line-height:125%;font-family:'Accanthis ADF Std';-inkscape-font-specification:'Accanthis ADF Std, Normal';text-align:start;writing-mode:lr-tb;text-anchor:start;fill:#808000;">Z</tspan></text>
</svg>
